<svg width="18" height="21" viewBox="0 0 18 21" fill="none" xmlns="http://www.w3.org/2000/svg">
<path d="M1.616 18C1.17133 18 0.791 17.8417 0.475 17.525C0.159 17.2083 0.000666667 16.8287 0 16.386V3.615C0 3.171 0.158333 2.791 0.475 2.475C0.791667 2.159 1.17167 2.00067 1.615 2H6.315C6.22433 1.48933 6.34667 1.02833 6.682 0.617C7.01667 0.205667 7.45933 0 8.01 0C8.56067 0 9.00333 0.205667 9.338 0.617C9.67267 1.02833 9.78833 1.48933 9.685 2H14.385C14.829 2 15.209 2.15833 15.525 2.475C15.841 2.79167 15.9993 3.17167 16 3.615V8.755C16 8.897 15.952 9.016 15.856 9.112C15.76 9.208 15.641 9.256 15.499 9.256C15.357 9.256 15.2383 9.208 15.143 9.112C15.0477 9.016 15 8.89733 15 8.756V3.616C15 3.462 14.936 3.32067 14.808 3.192C14.68 3.06333 14.5387 2.99933 14.384 3H1.616C1.462 3 1.32067 3.064 1.192 3.192C1.06333 3.32 0.999333 3.46133 1 3.616V16.385C1 16.5383 1.064 16.6793 1.192 16.808C1.32 16.9367 1.461 17.0007 1.615 17H6.731C6.87233 17 6.991 17.048 7.087 17.144C7.183 17.24 7.231 17.359 7.231 17.501C7.231 17.643 7.183 17.7617 7.087 17.857C6.991 17.9523 6.87233 18 6.731 18H1.616ZM1 16.007V17V3V9.306V9.231V16.007ZM4 14.269H7.385C7.52633 14.269 7.645 14.221 7.741 14.125C7.837 14.029 7.88467 13.9103 7.884 13.769C7.88333 13.6277 7.83567 13.509 7.741 13.413C7.64633 13.317 7.52733 13.269 7.384 13.269H4C3.858 13.269 3.73933 13.317 3.644 13.413C3.548 13.509 3.5 13.628 3.5 13.77C3.5 13.912 3.548 14.0307 3.644 14.126C3.74 14.2213 3.85867 14.269 4 14.269ZM4 10.5H10.48C10.622 10.5 10.741 10.452 10.837 10.356C10.933 10.26 10.981 10.141 10.981 9.999C10.981 9.857 10.933 9.73833 10.837 9.643C10.741 9.54767 10.6223 9.5 10.481 9.5H4C3.858 9.5 3.73933 9.548 3.644 9.644C3.54867 9.74 3.50067 9.859 3.5 10.001C3.49933 10.143 3.54733 10.2617 3.644 10.357C3.74067 10.4523 3.85933 10.5 4 10.5ZM4 6.73H12C12.142 6.73 12.2607 6.68233 12.356 6.587C12.452 6.491 12.5 6.372 12.5 6.23C12.5 6.088 12.452 5.96933 12.356 5.874C12.26 5.77867 12.1413 5.731 12 5.731H4C3.858 5.731 3.73933 5.779 3.644 5.875C3.54867 5.971 3.50067 6.09 3.5 6.232C3.49933 6.374 3.54733 6.49267 3.644 6.588C3.74067 6.68333 3.85933 6.73067 4 6.73ZM8 2.441C8.21667 2.441 8.396 2.37033 8.538 2.229C8.68 2.08767 8.75067 1.90833 8.75 1.691C8.74933 1.47367 8.67833 1.29467 8.537 1.154C8.39567 1.01333 8.21667 0.942667 8 0.942C7.78333 0.941333 7.60433 1.01233 7.463 1.155C7.32167 1.29767 7.25067 1.47667 7.25 1.692C7.24933 1.90733 7.32033 2.08667 7.463 2.23C7.60567 2.37333 7.78467 2.443 8 2.441ZM14 20.116C12.886 20.116 11.941 19.7277 11.165 18.951C10.3883 18.175 10 17.23 10 16.116C10 15.002 10.3883 14.0567 11.165 13.28C11.9417 12.5033 12.8867 12.1153 14 12.116C15.1133 12.1167 16.0587 12.5047 16.836 13.28C17.6133 14.0553 18.0013 15.0007 18 16.116C18 17.2293 17.612 18.1743 16.836 18.951C16.0587 19.7277 15.1133 20.116 14 20.116ZM13.616 16.5V18.616C13.616 18.718 13.6543 18.8077 13.731 18.885C13.8077 18.9617 13.8973 19 14 19C14.1027 19 14.1927 18.9617 14.27 18.885C14.3473 18.8083 14.3853 18.7183 14.384 18.615V16.5H16.5C16.6027 16.5 16.6927 16.4617 16.77 16.385C16.846 16.3077 16.884 16.2177 16.884 16.115C16.884 16.013 16.8457 15.9233 16.769 15.846C16.6923 15.7693 16.6027 15.731 16.5 15.731H14.384V13.615C14.384 13.513 14.3457 13.4233 14.269 13.346C14.1923 13.2693 14.1027 13.231 14 13.231C13.8973 13.231 13.8073 13.2693 13.73 13.346C13.6527 13.4227 13.6147 13.5127 13.616 13.616V15.731H11.5C11.3973 15.731 11.3073 15.7693 11.23 15.846C11.154 15.9233 11.116 16.0133 11.116 16.116C11.116 16.218 11.1543 16.3077 11.231 16.385C11.3077 16.4617 11.3973 16.5 11.5 16.5H13.616Z" fill="#182454"/>
</svg>
