<svg width="27" height="27" viewBox="0 0 27 27" fill="none" xmlns="http://www.w3.org/2000/svg">
<path fill-rule="evenodd" clip-rule="evenodd" d="M8.7372 3.8628C8.82101 3.9464 8.88751 4.04572 8.93288 4.15506C8.97825 4.2644 9.00161 4.38162 9.00161 4.5C9.00161 4.61838 8.97825 4.7356 8.93288 4.84494C8.88751 4.95428 8.82101 5.0536 8.7372 5.1372L6.6726 7.2H16.2C18.3483 7.2 20.4085 8.05339 21.9276 9.57243C23.4466 11.0915 24.3 13.1517 24.3 15.3C24.3 17.4483 23.4466 19.5085 21.9276 21.0276C20.4085 22.5466 18.3483 23.4 16.2 23.4H9C8.7613 23.4 8.53238 23.3052 8.3636 23.1364C8.19482 22.9676 8.1 22.7387 8.1 22.5C8.1 22.2613 8.19482 22.0324 8.3636 21.8636C8.53238 21.6948 8.7613 21.6 9 21.6H16.2C17.8709 21.6 19.4733 20.9362 20.6548 19.7548C21.8363 18.5733 22.5 16.9709 22.5 15.3C22.5 13.6291 21.8363 12.0267 20.6548 10.8452C19.4733 9.66375 17.8709 9 16.2 9H6.6726L8.7372 11.0628C8.82088 11.1465 8.88725 11.2458 8.93254 11.3551C8.97783 11.4645 9.00113 11.5817 9.00113 11.7C9.00113 11.8183 8.97783 11.9355 8.93254 12.0448C8.88725 12.1542 8.82088 12.2535 8.7372 12.3372C8.65352 12.4209 8.55418 12.4873 8.44485 12.5325C8.33552 12.5778 8.21834 12.6011 8.1 12.6011C7.98166 12.6011 7.86448 12.5778 7.75515 12.5325C7.64582 12.4873 7.54648 12.4209 7.4628 12.3372L3.8628 8.7372C3.77898 8.6536 3.71249 8.55428 3.66712 8.44494C3.62174 8.3356 3.59839 8.21838 3.59839 8.1C3.59839 7.98162 3.62174 7.8644 3.66712 7.75506C3.71249 7.64572 3.77898 7.5464 3.8628 7.4628L7.4628 3.8628C7.5464 3.77898 7.64572 3.71249 7.75506 3.66712C7.8644 3.62174 7.98162 3.59839 8.1 3.59839C8.21838 3.59839 8.3356 3.62174 8.44494 3.66712C8.55428 3.71249 8.6536 3.77898 8.7372 3.8628Z" fill="#182454"/>
</svg>
